<svg xmlns="http://www.w3.org/2000/svg" viewBox="0 0 900 600" width="100%" height="100%" style="background-color: #ffffff; font-family: -apple-system, BlinkMacSystemFont, 'Segoe UI', Roboto, 'Helvetica Neue', Arial, sans-serif;">
  <defs>
    <marker id="arrow" viewBox="0 0 10 10" refX="9" refY="5" markerWidth="6" markerHeight="6" orient="auto-start-reverse">
      <path d="M 0 1 L 10 5 L 0 9 z" fill="#111827" />
    </marker>
  </defs>

  <!-- Canvas Outer Border -->
  <rect x="1" y="1" width="898" height="598" rx="6" fill="#ffffff" stroke="#e5e7eb" stroke-width="1.5" />

  
  <text x="450" y="38" text-anchor="middle" fill="#111827" font-size="16" font-weight="700">Figure 3: End-to-End User Impact Journey</text>
  <line x1="40" y1="52" x2="860" y2="52" stroke="#e5e7eb" stroke-width="1"/>

  <!-- Step 1: Start -->
  <rect x="315" y="70" width="270" height="42" rx="4" fill="#f3f4f6" stroke="#111827" stroke-width="1.5"/>
  <text x="450" y="96" text-anchor="middle" fill="#111827" font-size="12" font-weight="600">User Authentication (OTP / JWT Session)</text>
  
  <path d="M 450 112 L 450 135" fill="none" stroke="#111827" stroke-width="1.5" marker-end="url(#arrow)"/>

  <!-- Step 2 -->
  <rect x="315" y="135" width="270" height="42" rx="4" fill="#ffffff" stroke="#111827" stroke-width="1.5"/>
  <text x="450" y="161" text-anchor="middle" fill="#111827" font-size="12">Explore Product Catalog &amp; Live Drops</text>

  <path d="M 450 177 L 450 200" fill="none" stroke="#111827" stroke-width="1.5" marker-end="url(#arrow)"/>

  <!-- Decision: Purchase Type -->
  <polygon points="450,200 560,235 450,270 340,235" fill="#f9fafb" stroke="#111827" stroke-width="1.5"/>
  <text x="450" y="239" text-anchor="middle" fill="#111827" font-size="12" font-weight="600">Purchase Type?</text>

  <!-- Fixed Branch -->
  <path d="M 340 235 L 200 235 L 200 280" fill="none" stroke="#111827" stroke-width="1.5" marker-end="url(#arrow)"/>
  <text x="255" y="225" fill="#4b5563" font-size="11">Fixed Price</text>
  <rect x="100" y="280" width="200" height="42" rx="4" fill="#ffffff" stroke="#111827" stroke-width="1.5"/>
  <text x="200" y="306" text-anchor="middle" fill="#111827" font-size="12">Direct Stripe Checkout</text>

  <!-- Auction Branch -->
  <path d="M 560 235 L 700 235 L 700 280" fill="none" stroke="#111827" stroke-width="1.5" marker-end="url(#arrow)"/>
  <text x="645" y="225" fill="#4b5563" font-size="11">Timed Auction</text>
  <rect x="600" y="280" width="200" height="42" rx="4" fill="#ffffff" stroke="#111827" stroke-width="1.5"/>
  <text x="700" y="306" text-anchor="middle" fill="#111827" font-size="12">Place Real-Time Bid</text>

  <!-- Merge to Payment -->
  <path d="M 200 322 L 200 355 L 430 355" fill="none" stroke="#111827" stroke-width="1.5"/>
  <path d="M 700 322 L 700 355 L 470 355" fill="none" stroke="#111827" stroke-width="1.5"/>
  <path d="M 450 355 L 450 380" fill="none" stroke="#111827" stroke-width="1.5" marker-end="url(#arrow)"/>

  <!-- Payment Confirmed -->
  <rect x="300" y="380" width="300" height="48" rx="4" fill="#ffffff" stroke="#111827" stroke-width="1.5"/>
  <text x="450" y="402" text-anchor="middle" fill="#111827" font-size="12" font-weight="600">Payment Processed &amp; Verified</text>
  <text x="450" y="418" text-anchor="middle" fill="#4b5563" font-size="11">Order Ledger Persisted · Merch Coins Credited</text>

  <path d="M 450 428 L 450 455" fill="none" stroke="#111827" stroke-width="1.5" marker-end="url(#arrow)"/>

  <!-- Donation -->
  <rect x="300" y="455" width="300" height="48" rx="4" fill="#ffffff" stroke="#111827" stroke-width="1.5"/>
  <text x="450" y="477" text-anchor="middle" fill="#111827" font-size="12" font-weight="600">Donate Earned Coins to Verified Cause</text>
  <text x="450" y="493" text-anchor="middle" fill="#4b5563" font-size="11">Atomic Account Deduction · Project Fund Increment</text>

  <path d="M 450 503 L 450 530" fill="none" stroke="#111827" stroke-width="1.5" marker-end="url(#arrow)"/>

  <!-- Finish -->
  <rect x="300" y="530" width="300" height="44" rx="4" fill="#f3f4f6" stroke="#111827" stroke-width="1.5"/>
  <text x="450" y="556" text-anchor="middle" fill="#111827" font-size="12" font-weight="700">Donor Badge Unlocked &amp; Leaderboard Updated</text>

</svg>